<svg width="1440" height="229" viewBox="0 0 1440 229" fill="none" xmlns="http://www.w3.org/2000/svg">
<g opacity="0.1">
<path fill-rule="evenodd" clip-rule="evenodd" d="M0 81.3421C0 81.3421 283.196 193.828 548.438 193.828C813.679 193.828 949.747 40.8304 1106.44 8.00309C1263.13 -24.8242 1440 81.3421 1440 81.3421V228.25H0V81.3421Z" fill="black"/>
<mask id="mask0_0_869" style="mask-type:alpha" maskUnits="userSpaceOnUse" x="0" y="1" width="1440" height="228">
<path fill-rule="evenodd" clip-rule="evenodd" d="M0 81.3421C0 81.3421 283.196 193.828 548.438 193.828C813.679 193.828 949.747 40.8304 1106.44 8.00309C1263.13 -24.8242 1440 81.3421 1440 81.3421V228.25H0V81.3421Z" fill="white"/>
</mask>
<g mask="url(#mask0_0_869)">
<ellipse cx="796.5" cy="364.422" rx="253.5" ry="278.28" fill="#673AB7"/>
<ellipse cx="538.5" cy="240.263" rx="494.5" ry="392.25" fill="url(#paint0_linear_0_869)"/>
<ellipse cx="1114.5" cy="14.75" rx="255.5" ry="380.5" fill="url(#paint1_linear_0_869)"/>
<ellipse cx="1440" cy="155.321" rx="210" ry="168.071" fill="#E91E63"/>
<ellipse cx="264.5" cy="198.931" rx="494.5" ry="392.25" fill="#B2EBF2"/>
<ellipse cx="169" cy="102.826" rx="252" ry="259.949" fill="url(#paint2_linear_0_869)"/>
<ellipse cy="-38.3574" rx="217" ry="174.393" fill="#D1C4E9"/>
</g>
</g>
<defs>
<linearGradient id="paint0_linear_0_869" x1="766.225" y1="-709.427" x2="-747.718" y2="146.085" gradientUnits="userSpaceOnUse">
<stop stop-color="#00BCD4"/>
<stop offset="1" stop-color="#673AB7"/>
</linearGradient>
<linearGradient id="paint1_linear_0_869" x1="1103.19" y1="-916.959" x2="298.346" y2="-235.827" gradientUnits="userSpaceOnUse">
<stop stop-color="#673AB7"/>
<stop offset="1" stop-color="#D1C4E9"/>
<stop offset="1" stop-color="#D1C4E9"/>
</linearGradient>
<linearGradient id="paint2_linear_0_869" x1="56.9271" y1="-279.104" x2="-191.144" y2="166.433" gradientUnits="userSpaceOnUse">
<stop stop-color="#E91E63"/>
<stop offset="1" stop-color="#F8BBD0"/>
</linearGradient>
</defs>
</svg>
