<svg width="335" height="327" viewBox="0 0 335 327" fill="none" xmlns="http://www.w3.org/2000/svg">
<g opacity="0.1">
<ellipse cx="167.289" cy="163.573" rx="166.806" ry="163.001" fill="#B2EBF2"/>
<mask id="mask0_0_1208" style="mask-type:alpha" maskUnits="userSpaceOnUse" x="0" y="0" width="335" height="327">
<ellipse cx="167.289" cy="163.573" rx="166.806" ry="163.001" fill="white"/>
</mask>
<g mask="url(#mask0_0_1208)">
<ellipse cx="306.539" cy="105.388" rx="92.5" ry="128.5" transform="rotate(149 306.539 105.388)" fill="url(#paint0_linear_0_1208)"/>
<ellipse cx="198.863" cy="145.587" rx="105.5" ry="223.5" transform="rotate(149 198.863 145.587)" fill="url(#paint1_linear_0_1208)"/>
<ellipse cx="292.819" cy="-31.0307" rx="111" ry="168.5" transform="rotate(149 292.819 -31.0307)" fill="url(#paint2_linear_0_1208)"/>
<ellipse cx="129.365" cy="215.345" rx="105" ry="222.5" transform="rotate(149 129.365 215.345)" fill="#006064"/>
<ellipse cx="76.4291" cy="219.368" rx="101.124" ry="138.43" transform="rotate(149 76.4291 219.368)" fill="url(#paint3_linear_0_1208)"/>
<ellipse cx="-12.6291" cy="226.582" rx="59.5" ry="96" transform="rotate(149 -12.6291 226.582)" fill="#B2EBF2"/>
<ellipse cx="321.92" cy="292.14" rx="100.5" ry="75.5" transform="rotate(149 321.92 292.14)" fill="#F8BBD0"/>
</g>
</g>
<defs>
<linearGradient id="paint0_linear_0_1208" x1="365.757" y1="-317.821" x2="153.095" y2="-109.966" gradientUnits="userSpaceOnUse">
<stop stop-color="#00BCD4"/>
<stop offset="1" stop-color="#673AB7"/>
</linearGradient>
<linearGradient id="paint1_linear_0_1208" x1="102.421" y1="-155.358" x2="-91.3939" y2="170.142" gradientUnits="userSpaceOnUse">
<stop stop-color="#00BCD4"/>
<stop offset="1" stop-color="#673AB7"/>
</linearGradient>
<linearGradient id="paint2_linear_0_1208" x1="320.311" y1="-124.749" x2="320.311" y2="-0.760835" gradientUnits="userSpaceOnUse">
<stop stop-color="#00BCD4"/>
<stop offset="1" stop-color="#B2EBF2"/>
<stop offset="1" stop-color="#D1C4E9"/>
</linearGradient>
<linearGradient id="paint3_linear_0_1208" x1="31.456" y1="15.9794" x2="-117.099" y2="217.029" gradientUnits="userSpaceOnUse">
<stop stop-color="#E91E63"/>
<stop offset="1" stop-color="#F8BBD0"/>
</linearGradient>
</defs>
</svg>
