<svg width="43" height="29" viewBox="0 0 43 29" fill="none" xmlns="http://www.w3.org/2000/svg">
<path fill-rule="evenodd" clip-rule="evenodd" d="M30.4455 21.6611C29.1498 21.2042 27.7484 21.175 26.4527 20.7181C26.0592 20.582 25.2817 20.4167 25.1185 19.9597C24.965 19.5125 24.965 18.9875 24.9362 18.5209C24.917 18.1514 24.9074 17.782 24.9074 17.4125C24.9074 17.1695 25.5217 16.6542 25.656 16.4306C26.1743 15.5556 26.2223 14.3792 26.3183 13.3875C27.1533 13.6209 27.2589 12.0556 27.4029 11.5792C27.5085 11.2486 28.1516 8.97363 27.1533 9.28475C27.3933 8.85697 27.4893 8.33197 27.5565 7.85558C27.7484 6.61113 27.8252 5.25002 27.4509 4.03475C26.6734 1.50697 24.2835 0.0875231 21.7592 0.00974533C19.1964 -0.0777547 16.6241 1.16669 15.6643 3.68475C15.2036 4.90975 15.242 6.24169 15.3955 7.52502C15.4627 8.10836 15.5587 8.75975 15.8467 9.28475C14.9156 9.0028 15.4147 11.0056 15.5203 11.3556C15.6739 11.8514 15.8083 13.6306 16.6817 13.3875C16.7585 14.175 16.8449 14.982 17.056 15.75C17.2 16.2653 17.4975 16.7028 17.8431 17.1014C18.0158 17.2959 18.1022 17.3153 18.0926 17.5681C18.083 18.3264 18.1022 19.1431 17.9103 19.882C17.7183 20.6209 16.1154 20.932 15.4723 21.0681C13.7446 21.4278 12.1513 21.5931 10.7116 22.682C9.03192 23.9361 8.15848 25.8903 8.15848 28C16.1538 28 24.1491 28 32.1444 28C33.0466 28 33.9393 28 34.8415 28C34.8415 25.132 33.133 22.6042 30.4455 21.6611C31.5301 22.0403 29.3705 21.282 30.4455 21.6611ZM11.0475 24.4611C11.585 23.8875 12.2665 23.382 13.0056 23.1C14.0134 22.7111 15.1556 22.7306 16.2018 22.4584C17.0656 22.2347 18.1406 21.8847 18.8125 21.2528C19.4268 20.6695 19.494 19.775 19.5516 18.9681C19.5996 18.2875 19.59 17.6167 19.59 16.9361C19.59 16.4597 19.0429 16.1875 18.7741 15.8084C18.3422 15.2153 18.323 14.3306 18.2366 13.6209C18.1982 13.3097 18.1886 12.9111 17.9295 12.6972C17.6415 12.4639 17.4304 12.3375 17.2864 11.9681C17.0944 11.4625 17.0272 10.9181 16.8737 10.3931C16.7777 10.0528 17.1136 9.73197 17.248 9.45002C17.4975 8.93475 17.0656 8.13752 16.9792 7.6028C16.7105 6.00836 16.7201 4.26808 17.8527 3.00419C20.1275 0.456968 25.3393 1.26391 26.0879 4.84169C26.3183 5.95975 26.1743 7.26252 25.8672 8.35141C25.7328 8.81808 25.5792 9.15836 25.848 9.6153C26.2511 10.2764 26.0783 10.7042 25.8864 11.4431C25.7328 12.0556 25.5408 12.3278 25.0801 12.707C24.6962 13.0181 24.7538 13.7959 24.6866 14.2431C24.6098 14.7875 24.5618 15.3611 24.2355 15.8181C24.1107 15.9931 23.4292 16.5375 23.4292 16.7222C23.4292 17.7917 23.3812 18.8806 23.5636 19.9403C23.8132 21.4472 25.0609 21.807 26.3087 22.3222C27.5757 22.8181 29.0442 22.6334 30.2728 23.2459C31.5397 23.8778 32.7587 25.0347 33.1234 26.4639C25.5121 26.4639 17.9007 26.4639 10.2893 26.4639C10.1549 26.4639 10.0205 26.4639 9.88616 26.4639C10.0685 25.657 10.51 25.0445 11.0475 24.4611C10.4812 25.0736 11.9306 23.5181 11.0475 24.4611Z" fill="black" fill-opacity="0.87"/>
<path fill-rule="evenodd" clip-rule="evenodd" d="M10.7596 20.4167C11.4315 20.0764 12.1609 19.9986 12.9 19.9209C13.1687 19.8917 13.2935 19.707 13.092 19.4445C12.708 18.9486 11.3835 18.8514 10.8268 18.6278C10.4813 18.4917 10.3853 18.3653 10.3565 17.9764C10.3469 17.8014 10.2509 17.0236 10.3853 16.8972C10.4813 16.8 11.0859 16.8389 11.2203 16.8195C11.7674 16.7514 12.3241 16.6347 12.8424 16.4306C13.0632 16.3431 13.2743 16.2361 13.4663 16.1C13.6967 15.925 13.2935 15.4972 13.1879 15.2639C12.8616 14.5347 12.7176 13.7375 12.6696 12.9403C12.5737 11.375 12.8136 9.80002 12.5257 8.24446C12.0938 5.86252 10.2797 4.66669 7.96652 4.66669C6.53638 4.66669 5.12545 5.16252 4.32879 6.42641C3.44576 7.81669 3.49375 9.54724 3.54174 11.132C3.57054 12.0361 3.60893 12.95 3.48415 13.8542C3.42656 14.2431 3.34018 14.6222 3.2058 14.9917C3.10022 15.2736 2.56272 15.9736 2.77388 16.1195C3.57054 16.6931 4.91429 16.8875 5.87411 16.8097C5.9029 17.2861 5.98929 17.8986 5.81652 18.3459C5.54777 19.0459 3.54174 19.2306 2.93705 19.4347C1.24777 20.0084 0 21.4375 0 23.3334C1.75647 23.3334 3.50335 23.3334 5.25982 23.3334C6.04688 23.3334 6.83393 23.3334 7.63058 23.3334C7.75536 23.3334 8.23527 22.4292 8.36964 22.2834C9.04152 21.525 9.86696 20.8736 10.7596 20.4167C9.35826 21.1361 11.6234 19.9792 10.7596 20.4167ZM6.79554 21.7778C5.23103 21.7778 3.66652 21.7778 2.10201 21.7778C2.78348 20.6306 4.49196 20.7084 5.61496 20.3C6.65156 19.9209 7.31384 19.2792 7.41942 18.1611C7.42902 18.0347 7.43862 15.3222 7.33304 15.3222C6.49799 15.2931 5.62455 15.3125 4.78951 15.1861C5.45179 13.0181 4.8183 10.782 5.17344 8.59446C5.43259 7.00974 6.4308 6.13474 8.02411 6.13474C9.55022 6.13474 10.6828 6.85419 11.0092 8.40974C11.4699 10.6653 10.8172 12.9695 11.5275 15.2056C10.9996 15.3417 10.4429 15.3611 9.89576 15.3806C9.62701 15.3903 9.34866 15.4 9.07991 15.4097C8.90714 15.4195 8.96473 15.7209 8.95513 15.8667C8.85915 16.9264 8.47522 18.5986 9.31027 19.4542C8.38884 20.0375 7.39062 20.8445 6.79554 21.7778Z" fill="black" fill-opacity="0.87"/>
<path fill-rule="evenodd" clip-rule="evenodd" d="M35.3022 23.3333C37.865 23.3333 40.4373 23.3333 43 23.3333C43 21.4375 41.7426 19.9986 40.0533 19.4347C39.2759 19.1819 37.7786 19.1042 37.2219 18.4236C36.9435 18.0833 37.0971 17.218 37.1259 16.8097C37.5482 16.8486 38.0089 16.7805 38.4408 16.7222C38.8344 16.6639 39.2183 16.5861 39.5926 16.45C39.7654 16.3819 39.9382 16.3139 40.1013 16.2167C40.4757 15.993 40.3029 15.9542 40.1109 15.6236C39.0647 13.8444 39.535 11.5889 39.4871 9.63471C39.4487 8.0111 39.0263 6.23193 37.5674 5.31804C36.2525 4.49165 34.304 4.46249 32.8931 5.04582C28.8234 6.6986 31.223 12.1625 29.8313 15.293C29.5913 15.818 29.2458 16.0028 29.8504 16.3139C30.1864 16.4889 30.5511 16.6055 30.9158 16.693C31.4725 16.8292 32.0484 16.9069 32.6243 16.9264C32.7203 16.9264 32.6531 18.1514 32.6243 18.2778C32.5188 18.7542 31.4917 18.8903 31.1078 18.9972C30.7143 19.1042 30.0616 19.1333 29.8696 19.5514C29.5817 20.1736 30.8199 20.018 31.127 20.0764C32.1156 20.2611 32.9891 20.8153 33.7569 21.4472C34.3232 21.9139 35.0911 22.575 35.3022 23.3333ZM35.2638 20.6986C34.7743 20.2417 34.2656 19.7944 33.6993 19.4347C34.544 18.5792 34.1504 16.9167 34.0545 15.8472C33.9969 15.2347 33.8625 15.3903 33.2578 15.3708C32.6819 15.3514 32.0292 15.3805 31.4821 15.1958C32.1732 13.0278 31.6069 10.8014 31.9621 8.59443C32.2308 6.93193 33.3538 6.11527 34.9855 6.11527C36.4636 6.11527 37.481 6.86388 37.7882 8.35138C38.2585 10.5972 37.5386 12.9208 38.2201 15.1569C37.4042 15.2833 36.5596 15.2542 35.7342 15.2833C35.5326 15.293 35.5518 17.7236 35.571 17.9375C35.6382 19.075 36.1565 19.7653 37.2219 20.2028C38.3833 20.6792 40.1973 20.5528 40.9076 21.7486C40.015 21.7486 39.1319 21.7486 38.2393 21.7486C37.7018 21.7486 37.1643 21.7486 36.6172 21.7486C35.9357 21.7583 35.7629 21.1555 35.2638 20.6986C35.6478 21.0486 34.7839 20.2514 35.2638 20.6986Z" fill="black" fill-opacity="0.87"/>
</svg>
